<svg xmlns="http://www.w3.org/2000/svg" id="logo" viewBox="0 0 1541.09 749"><defs><style>.cls-1{fill:#ff695f;}.cls-1,.cls-2{stroke-width:0px;}.cls-2{fill:#fff;}</style></defs><path class="cls-1" d="m252.01,280v50.25h-42v40.75h42v168h42V252h105v-42h-77c-38.66,0-70,31.34-70,70Zm569.77,7v182c0,38.66,31.34,70,70,70h53.99v-42h-81.99v-210h-42Zm479.32,42l-42,42h82v-42h-40Zm-437.32,42h82v-42h-39.99l-42.01,42Zm-76.99,0v-42h-105c-38.66,0-70,31.34-70,70v70c0,38.66,31.34,70,70,70h105v-42h-133v-126h133Zm472.31-42h-42v210h42v-168h0v-42Zm-147,0h-70c-38.66,0-70,31.34-70,70v70c0,38.66,31.34,70,70,70h70c38.66,0,70-31.34,70-70v-70c0-38.66-31.34-70-70-70Zm28,168h-126v-126h126s0,126,0,126Zm-764.1-168h-39.99l-42.01,42h82v-42Z"></path><path class="cls-1" d="m252.01,280v50.25h-42v40.75h42v168h42V252h105v-42h-77c-38.66,0-70,31.34-70,70Zm569.77,7v182c0,38.66,31.34,70,70,70h53.99v-42h-81.99v-210h-42Zm479.32,42l-42,42h82v-42h-40Zm-437.32,42h82v-42h-39.99l-42.01,42Zm-76.99,0v-42h-105c-38.66,0-70,31.34-70,70v70c0,38.66,31.34,70,70,70h105v-42h-133v-126h133Zm472.31-42h-42v210h42v-168h0v-42Zm-147,0h-70c-38.66,0-70,31.34-70,70v70c0,38.66,31.34,70,70,70h70c38.66,0,70-31.34,70-70v-70c0-38.66-31.34-70-70-70Zm28,168h-126v-126h126s0,126,0,126Zm-764.1-168h-39.99l-42.01,42h82v-42Z"></path><path class="cls-2" d="m424.86,539l84-84v-56l-140,140h56Zm84-210h-88l-42,42h158v168h42v-140c0-38.66-31.34-70-70-70Z"></path></svg>